<mxfile host="65bd71144e">
    <diagram id="IrkhBJ7IhfRkE-Q5EyV7" name="Page-1">
        <mxGraphModel dx="1714" dy="2569" grid="0" gridSize="10" guides="1" tooltips="1" connect="1" arrows="1" fold="1" page="0" pageScale="1" pageWidth="850" pageHeight="1100" background="none" math="0" shadow="0">
            <root>
                <mxCell id="0"/>
                <mxCell id="1" parent="0"/>
                <mxCell id="69" value="Vertical Tree Layout" style="swimlane;startSize=20;horizontal=1;childLayout=treeLayout;horizontalTree=0;resizable=0;containerType=tree;fontSize=12;labelBackgroundColor=none;fontColor=default;" parent="1" vertex="1">
                    <mxGeometry x="100" y="-970" width="1538" height="650" as="geometry"/>
                </mxCell>
                <mxCell id="70" value="BrowserRouter" style="whiteSpace=wrap;html=1;" parent="69" vertex="1">
                    <mxGeometry x="976.1575" y="40" width="142.31" height="60" as="geometry"/>
                </mxCell>
                <mxCell id="71" value="App.js" style="whiteSpace=wrap;html=1;" parent="69" vertex="1">
                    <mxGeometry x="986.1575" y="150" width="122.31" height="60" as="geometry"/>
                </mxCell>
                <mxCell id="72" value="" style="edgeStyle=elbowEdgeStyle;elbow=vertical;html=1;rounded=1;curved=0;sourcePerimeterSpacing=0;targetPerimeterSpacing=0;startSize=6;endSize=6;" parent="69" source="70" target="71" edge="1">
                    <mxGeometry relative="1" as="geometry"/>
                </mxCell>
                <mxCell id="73" value="" style="edgeStyle=elbowEdgeStyle;elbow=vertical;html=1;rounded=1;curved=0;sourcePerimeterSpacing=0;targetPerimeterSpacing=0;startSize=6;endSize=6;" parent="69" source="71" target="74" edge="1">
                    <mxGeometry relative="1" as="geometry">
                        <mxPoint x="-6820.1500000000015" y="-840" as="sourcePoint"/>
                    </mxGeometry>
                </mxCell>
                <mxCell id="74" value="NetflixNavbar.jsx" style="whiteSpace=wrap;html=1;" parent="69" vertex="1">
                    <mxGeometry x="576.625" y="260" width="139.25" height="60" as="geometry"/>
                </mxCell>
                <mxCell id="75" value="" style="edgeStyle=elbowEdgeStyle;elbow=vertical;html=1;rounded=1;curved=0;sourcePerimeterSpacing=0;targetPerimeterSpacing=0;startSize=6;endSize=6;" parent="69" source="71" target="76" edge="1">
                    <mxGeometry relative="1" as="geometry">
                        <mxPoint x="-6820.1500000000015" y="-840" as="sourcePoint"/>
                    </mxGeometry>
                </mxCell>
                <mxCell id="76" value="Routes" style="whiteSpace=wrap;html=1;" parent="69" vertex="1">
                    <mxGeometry x="1221.25" y="260" width="117.5" height="50" as="geometry"/>
                </mxCell>
                <mxCell id="77" value="" style="edgeStyle=elbowEdgeStyle;elbow=vertical;html=1;rounded=1;curved=0;sourcePerimeterSpacing=0;targetPerimeterSpacing=0;startSize=6;endSize=6;" parent="69" source="76" target="78" edge="1">
                    <mxGeometry relative="1" as="geometry">
                        <mxPoint x="-6750.1500000000015" y="-750" as="sourcePoint"/>
                    </mxGeometry>
                </mxCell>
                <mxCell id="78" value="Route" style="whiteSpace=wrap;html=1;" parent="69" vertex="1">
                    <mxGeometry x="1230" y="360" width="100" height="40" as="geometry"/>
                </mxCell>
                <mxCell id="79" value="" style="edgeStyle=elbowEdgeStyle;elbow=vertical;html=1;rounded=1;curved=0;sourcePerimeterSpacing=0;targetPerimeterSpacing=0;startSize=6;endSize=6;" parent="69" source="74" target="80" edge="1">
                    <mxGeometry relative="1" as="geometry">
                        <mxPoint x="-6750.1500000000015" y="-750" as="sourcePoint"/>
                    </mxGeometry>
                </mxCell>
                <mxCell id="80" value="Logo" style="whiteSpace=wrap;html=1;" parent="69" vertex="1">
                    <mxGeometry x="102.5" y="370" width="155" height="60" as="geometry"/>
                </mxCell>
                <mxCell id="81" value="" style="edgeStyle=elbowEdgeStyle;elbow=vertical;html=1;rounded=1;curved=0;sourcePerimeterSpacing=0;targetPerimeterSpacing=0;startSize=6;endSize=6;" parent="69" source="74" target="82" edge="1">
                    <mxGeometry relative="1" as="geometry">
                        <mxPoint x="-6750.1500000000015" y="-750" as="sourcePoint"/>
                    </mxGeometry>
                </mxCell>
                <mxCell id="82" value="NetflixHome.jsx" style="whiteSpace=wrap;html=1;" parent="69" vertex="1">
                    <mxGeometry x="303.5" y="370" width="135" height="60" as="geometry"/>
                </mxCell>
                <mxCell id="83" value="" style="edgeStyle=elbowEdgeStyle;elbow=vertical;html=1;rounded=1;curved=0;sourcePerimeterSpacing=0;targetPerimeterSpacing=0;startSize=6;endSize=6;" parent="69" source="74" target="84" edge="1">
                    <mxGeometry relative="1" as="geometry">
                        <mxPoint x="-6575.1500000000015" y="-750" as="sourcePoint"/>
                    </mxGeometry>
                </mxCell>
                <mxCell id="84" value="NetflixTvShows.jsx" style="whiteSpace=wrap;html=1;" parent="69" vertex="1">
                    <mxGeometry x="478.5" y="370" width="138" height="60" as="geometry"/>
                </mxCell>
                <mxCell id="85" value="" style="edgeStyle=elbowEdgeStyle;elbow=vertical;html=1;rounded=1;curved=0;sourcePerimeterSpacing=0;targetPerimeterSpacing=0;startSize=6;endSize=6;" parent="69" source="74" target="86" edge="1">
                    <mxGeometry relative="1" as="geometry">
                        <mxPoint x="-6295.1500000000015" y="-750" as="sourcePoint"/>
                    </mxGeometry>
                </mxCell>
                <mxCell id="86" value="NetflixMovies.jsx&lt;br&gt;[&lt;span style=&quot;font-size: 13px;&quot;&gt;Array of Movies]&lt;/span&gt;" style="whiteSpace=wrap;html=1;" parent="69" vertex="1">
                    <mxGeometry x="656.5" y="370" width="177.5" height="60" as="geometry"/>
                </mxCell>
                <mxCell id="87" value="" style="edgeStyle=elbowEdgeStyle;elbow=vertical;html=1;rounded=1;curved=0;sourcePerimeterSpacing=0;targetPerimeterSpacing=0;startSize=6;endSize=6;" parent="69" source="74" target="88" edge="1">
                    <mxGeometry relative="1" as="geometry">
                        <mxPoint x="-5910.1500000000015" y="-750" as="sourcePoint"/>
                    </mxGeometry>
                </mxCell>
                <mxCell id="88" value="NetflixNewPopular.jsx" style="whiteSpace=wrap;html=1;" parent="69" vertex="1">
                    <mxGeometry x="874" y="370" width="146" height="60" as="geometry"/>
                </mxCell>
                <mxCell id="97" value="" style="edgeStyle=elbowEdgeStyle;elbow=vertical;html=1;rounded=1;curved=0;sourcePerimeterSpacing=0;targetPerimeterSpacing=0;startSize=6;endSize=6;" parent="69" source="74" target="98" edge="1">
                    <mxGeometry relative="1" as="geometry">
                        <mxPoint x="-3405.4000000000005" y="-830" as="sourcePoint"/>
                    </mxGeometry>
                </mxCell>
                <mxCell id="98" value="NetflixMyList.jsx" style="whiteSpace=wrap;html=1;" parent="69" vertex="1">
                    <mxGeometry x="1060" y="370" width="130" height="60" as="geometry"/>
                </mxCell>
                <mxCell id="100" value="" style="edgeStyle=elbowEdgeStyle;elbow=vertical;html=1;rounded=1;curved=0;sourcePerimeterSpacing=0;targetPerimeterSpacing=0;startSize=6;endSize=6;" parent="69" source="80" target="101" edge="1">
                    <mxGeometry relative="1" as="geometry">
                        <mxPoint x="-1503.6474999999998" y="-770" as="sourcePoint"/>
                    </mxGeometry>
                </mxCell>
                <mxCell id="101" value="&lt;font style=&quot;font-size: 13px;&quot;&gt;NetflixDashBoard.jsx&lt;br style=&quot;font-size: 13px;&quot;&gt;(Static Routing Concept)&lt;/font&gt;" style="whiteSpace=wrap;html=1;fontSize=13;labelBackgroundColor=none;" parent="69" vertex="1">
                    <mxGeometry x="95" y="480" width="170" height="60" as="geometry"/>
                </mxCell>
                <mxCell id="102" value="" style="edgeStyle=elbowEdgeStyle;elbow=vertical;html=1;rounded=1;curved=0;sourcePerimeterSpacing=0;targetPerimeterSpacing=0;startSize=6;endSize=6;" parent="69" source="101" target="103" edge="1">
                    <mxGeometry relative="1" as="geometry">
                        <mxPoint x="-1892.3974999999998" y="-680" as="sourcePoint"/>
                    </mxGeometry>
                </mxCell>
                <mxCell id="103" value="NetflixAbout.jsx" style="whiteSpace=wrap;html=1;" parent="69" vertex="1">
                    <mxGeometry x="20" y="590" width="140" height="40" as="geometry"/>
                </mxCell>
                <mxCell id="104" value="" style="edgeStyle=elbowEdgeStyle;elbow=vertical;html=1;rounded=1;curved=0;sourcePerimeterSpacing=0;targetPerimeterSpacing=0;startSize=6;endSize=6;" parent="69" source="101" target="105" edge="1">
                    <mxGeometry relative="1" as="geometry">
                        <mxPoint x="-1892.3974999999998" y="-680" as="sourcePoint"/>
                    </mxGeometry>
                </mxCell>
                <mxCell id="105" value="NetflixContact.jsx" style="whiteSpace=wrap;html=1;" parent="69" vertex="1">
                    <mxGeometry x="200" y="590" width="140" height="40" as="geometry"/>
                </mxCell>
                <mxCell id="110" value="" style="edgeStyle=elbowEdgeStyle;elbow=vertical;html=1;rounded=1;curved=0;sourcePerimeterSpacing=0;targetPerimeterSpacing=0;startSize=6;endSize=6;" parent="69" source="71" target="111" edge="1">
                    <mxGeometry relative="1" as="geometry">
                        <mxPoint x="302.15500000000054" y="-880" as="sourcePoint"/>
                    </mxGeometry>
                </mxCell>
                <mxCell id="111" value="NetflixNavbar.jsx" style="whiteSpace=wrap;html=1;" parent="69" vertex="1">
                    <mxGeometry x="1378.75" y="260" width="139.25" height="60" as="geometry"/>
                </mxCell>
                <mxCell id="120" value="&lt;p style=&quot;color: rgb(234, 42, 42); font-weight: 700; line-height: 0%;&quot;&gt;Shows&amp;nbsp;&lt;/p&gt;&lt;span style=&quot;color: rgb(234, 42, 42); font-weight: 700;&quot;&gt;Error404.jsx&lt;/span&gt;" style="rounded=0;whiteSpace=wrap;html=1;labelBackgroundColor=none;labelBorderColor=none;fontSize=13;align=center;" parent="69" vertex="1">
                    <mxGeometry x="316" y="260" width="120" height="60" as="geometry"/>
                </mxCell>
                <mxCell id="121" value="" style="edgeStyle=elbowEdgeStyle;elbow=vertical;html=1;rounded=1;curved=0;targetPerimeterSpacing=0;startSize=6;endSize=6;startArrow=none;" parent="69" source="126" target="122" edge="1">
                    <mxGeometry relative="1" as="geometry">
                        <mxPoint x="785.75" y="-770" as="sourcePoint"/>
                    </mxGeometry>
                </mxCell>
                <mxCell id="122" value="PlayMovies.jsx" style="whiteSpace=wrap;html=1;" parent="69" vertex="1">
                    <mxGeometry x="680.75" y="570" width="129" height="40" as="geometry"/>
                </mxCell>
                <mxCell id="127" value="" style="edgeStyle=elbowEdgeStyle;elbow=vertical;html=1;rounded=1;curved=0;sourcePerimeterSpacing=0;startSize=6;endSize=6;endArrow=none;" parent="69" source="86" target="126" edge="1">
                    <mxGeometry relative="1" as="geometry">
                        <mxPoint x="845.25" y="-660" as="sourcePoint"/>
                        <mxPoint x="845.25" y="-610" as="targetPoint"/>
                    </mxGeometry>
                </mxCell>
                <mxCell id="126" value="Each has &lt;br&gt;unique ID" style="text;html=1;align=center;verticalAlign=middle;resizable=0;points=[];autosize=1;strokeColor=none;fillColor=none;fontSize=13;fontColor=default;" parent="69" vertex="1">
                    <mxGeometry x="705.25" y="480" width="80" height="40" as="geometry"/>
                </mxCell>
                <mxCell id="117" style="edgeStyle=none;html=1;exitX=0;exitY=0.5;exitDx=0;exitDy=0;fontSize=13;fontColor=#ea2a2a;labelBorderColor=default;entryX=1;entryY=0.5;entryDx=0;entryDy=0;" parent="69" source="74" target="120" edge="1">
                    <mxGeometry relative="1" as="geometry">
                        <mxPoint x="330" y="169.66666666666674" as="targetPoint"/>
                    </mxGeometry>
                </mxCell>
            </root>
        </mxGraphModel>
    </diagram>
</mxfile>